<svg xmlns="http://www.w3.org/2000/svg" version="1.1" xmlns:xlink="http://www.w3.org/1999/xlink" xmlns:svgjs="http://svgjs.dev/svgjs" width="2000" height="611" viewBox="0 0 2000 611"><g transform="matrix(1,0,0,1,-1.2121212121212466,-2.02884308574113)"><svg viewBox="0 0 396 121" data-background-color="#ffffff" preserveAspectRatio="xMidYMid meet" height="611" width="2000" xmlns="http://www.w3.org/2000/svg" xmlns:xlink="http://www.w3.org/1999/xlink"><g id="tight-bounds" transform="matrix(1,0,0,1,0.2400000000000091,0.40178398260994186)"><svg viewBox="0 0 395.52 120.19643203478013" height="120.19643203478013" width="395.52"><g><svg viewBox="0 0 619.3334294565707 188.2121472" height="120.19643203478013" width="395.52"><g transform="matrix(1,0,0,1,223.81342945657076,18.703910193785987)"><svg viewBox="0 0 395.52 150.80432681242803" height="150.80432681242803" width="395.52"><g id="textblocktransform"><svg viewBox="0 0 395.52 150.80432681242803" height="150.80432681242803" width="395.52" id="textblock"><g><svg viewBox="0 0 395.52 150.80432681242803" height="150.80432681242803" width="395.52"><g transform="matrix(1,0,0,1,0,0)"><svg width="395.52" viewBox="4 -38.7 130.34 49.7" height="150.80432681242803" data-palette-color="#f97316"><path d="M24.35-33.85L30.45-34.6 29.8-13 30.35-1.1 24.45 0.15 9.55-23.95 9.55-13 10.25 0 4 0 4.6-12.15 4-34.35 10-34.65 24.85-10.2 24.35-33.85ZM35.85-10.45Q35.85-16.85 39.3-21.3 42.75-25.75 47.37-25.75 52-25.75 54.57-22.75 57.15-19.75 57.15-14.8L57.15-14.8Q57.15-8.2 53.82-3.83 50.5 0.55 45.45 0.55L45.45 0.55Q41.3 0.55 38.57-2.58 35.85-5.7 35.85-10.45L35.85-10.45ZM51.55-12.2L51.55-12.2Q51.55-19.45 46.6-19.45L46.6-19.45Q41.45-19.45 41.45-12.65L41.45-12.65Q41.45-9.1 42.9-7.1 44.35-5.1 46.72-5.1 49.1-5.1 50.32-6.93 51.55-8.75 51.55-12.2ZM60.5-24.2L63.4-24.2 63.4-29.65 70.15-30.95 69.5-24.2 75.55-24.2 75-20.1 69.3-20.1 69.05-9.65Q69.05-7.3 69.5-6.53 69.95-5.75 71.15-5.75 72.35-5.75 74.35-6.3L74.35-6.3 74.65-2.75Q71.35 0 68.85 0 66.35 0 64.75-1.83 63.15-3.65 63.15-6.6L63.15-6.6 63.45-12.2 63.4-20.1 59.95-20.1 60.5-24.2ZM88.19-5.1L88.19-5.1Q89.64-5.1 91.24-5.85 92.84-6.6 93.74-7.35L93.74-7.35 94.64-8.1 96.94-5.3Q96.44-4.45 95.39-3.35 94.34-2.25 93.27-1.48 92.19-0.7 90.42-0.08 88.64 0.55 86.74 0.55L86.74 0.55Q82.69 0.55 80.14-2.53 77.59-5.6 77.59-10.45L77.59-10.45Q77.59-16.55 81.14-21.15 84.69-25.75 89.44-25.75L89.44-25.75Q93.09-25.75 95.12-23.7 97.14-21.65 97.14-17.95L97.14-17.95Q97.14-15.75 96.39-12.95L96.39-12.95 95.39-11.9 82.89-10.75Q83.74-5.1 88.19-5.1ZM88.19-20.6L88.19-20.6Q85.99-20.6 84.49-18.82 82.99-17.05 82.74-14.3L82.74-14.3 91.24-15.35Q91.39-16.5 91.39-17.25L91.39-17.25Q91.39-20.6 88.19-20.6ZM101.49-37.45L108.34-38.7 107.69-13 108.24-1.25 101.49 0 102.09-12.15 101.49-37.45ZM121.29 11L114.84 9.65 119.99-1.9 116.29-12 111.24-24.15 117.89-25.4 121.09-14.75 122.74-9.7 123.39-9.7 124.59-13.35 128.19-25.45 134.34-24.7 125.49-1.45 121.29 11Z" opacity="1" transform="matrix(1,0,0,1,0,0)" fill="#f97316" class="wordmark-text-0" data-fill-palette-color="primary" id="text-0"></path></svg></g></svg></g></svg></g></svg></g><g><svg viewBox="0 0 188.2121472 188.2121472" height="188.2121472" width="188.2121472"><g><svg xmlns="http://www.w3.org/2000/svg" xmlns:xlink="http://www.w3.org/1999/xlink" version="1.1" x="0" y="0" viewBox="6.25 6.25 87.5 87.5" enable-background="new 0 0 100 100" xml:space="preserve" height="188.2121472" width="188.2121472" class="icon-icon-0" data-fill-palette-color="accent" id="icon-0"><path fill="#f97316" d="M81.25 25V12.5H68.75V6.25H56.25V12.5H31.25V6.25H18.75V12.5H6.25V81.25H18.75V93.75H93.75V25zM13.75 73.75V20H18.75V25H31.25V20H56.25V25H68.75V20H73.75V73.75zM86.25 86.25H26.25V81.25H81.25V32.5H86.25z" data-fill-palette-color="accent"></path><rect x="18.75" y="31.25" fill="#f97316" width="50" height="6.25" data-fill-palette-color="accent"></rect><rect x="18.75" y="43.75" fill="#f97316" width="50" height="6.25" data-fill-palette-color="accent"></rect><rect x="18.75" y="56.25" fill="#f97316" width="50" height="6.25" data-fill-palette-color="accent"></rect></svg></g></svg></g></svg></g><defs></defs></svg><rect width="395.52" height="120.19643203478013" fill="none" stroke="none" visibility="hidden"></rect></g></svg></g></svg>